<svg width="875" height="335" viewBox="0 0 875 335" fill="none" xmlns="http://www.w3.org/2000/svg">
<path d="M0 186V148H5.06087V163.604H24.9391V148H30V186H24.9391V168.089H5.06087V186H0Z" fill="white"/>
<path d="M845 187V149H850.061V164.604H869.939V149H875V187H869.939V169.089H850.061V187H845Z" fill="white"/>
<path d="M235 335V297H240.061V312.604H259.939V297H265V335H259.939V317.089H240.061V335H235Z" fill="white"/>
<path d="M428 335V297H433.23V312.604H453.77V297H459V335H453.77V317.089H433.23V335H428Z" fill="white"/>
<path d="M259.06 173.134L264 174.394C262.965 178.493 261.097 181.623 258.398 183.784C255.716 185.928 252.431 187 248.544 187C244.521 187 241.245 186.177 238.715 184.53C236.203 182.867 234.285 180.466 232.961 177.327C231.654 174.189 231 170.819 231 167.217C231 163.29 231.738 159.868 233.215 156.952C234.709 154.02 236.823 151.799 239.556 150.29C242.306 148.763 245.327 148 248.62 148C252.355 148 255.495 148.96 258.042 150.881C260.588 152.802 262.362 155.503 263.363 158.985L258.5 160.142C257.634 157.398 256.378 155.4 254.731 154.148C253.085 152.896 251.014 152.27 248.519 152.27C245.65 152.27 243.248 152.965 241.312 154.354C239.394 155.743 238.045 157.613 237.264 159.962C236.483 162.295 236.093 164.704 236.093 167.191C236.093 170.398 236.551 173.203 237.468 175.604C238.401 177.987 239.844 179.771 241.796 180.954C243.748 182.138 245.862 182.73 248.137 182.73C250.904 182.73 253.246 181.923 255.164 180.311C257.083 178.699 258.381 176.307 259.06 173.134Z" fill="white"/>
<path d="M454.91 173.134L460 174.394C458.933 178.493 457.009 181.623 454.228 183.784C451.465 185.928 448.081 187 444.076 187C439.931 187 436.555 186.177 433.949 184.53C431.361 182.867 429.384 180.466 428.02 177.327C426.673 174.189 426 170.819 426 167.217C426 163.29 426.761 159.868 428.282 156.952C429.822 154.02 431.999 151.799 434.815 150.29C437.648 148.763 440.761 148 444.154 148C448.002 148 451.238 148.96 453.861 150.881C456.485 152.802 458.312 155.503 459.344 158.985L454.333 160.142C453.441 157.398 452.147 155.4 450.451 154.148C448.754 152.896 446.62 152.27 444.049 152.27C441.094 152.27 438.619 152.965 436.625 154.354C434.649 155.743 433.258 157.613 432.454 159.962C431.649 162.295 431.247 164.704 431.247 167.191C431.247 170.398 431.719 173.203 432.664 175.604C433.626 177.987 435.112 179.771 437.123 180.954C439.135 182.138 441.312 182.73 443.656 182.73C446.507 182.73 448.92 181.923 450.897 180.311C452.873 178.699 454.211 176.307 454.91 173.134Z" fill="white"/>
<path d="M646 168.001C646 161.746 647.724 156.852 651.173 153.322C654.621 149.774 659.072 148 664.526 148C668.098 148 671.318 148.831 674.185 150.494C677.053 152.156 679.235 154.479 680.73 157.461C682.243 160.426 683 163.794 683 167.564C683 171.386 682.208 174.806 680.625 177.822C679.041 180.839 676.798 183.127 673.895 184.686C670.992 186.229 667.86 187 664.5 187C660.858 187 657.603 186.143 654.735 184.429C651.868 182.715 649.695 180.376 648.217 177.411C646.739 174.446 646 171.309 646 168.001ZM651.278 168.078C651.278 172.62 652.527 176.202 655.026 178.825C657.542 181.43 660.691 182.732 664.474 182.732C668.327 182.732 671.494 181.413 673.974 178.773C676.473 176.134 677.722 172.389 677.722 167.539C677.722 164.471 677.185 161.797 676.112 159.517C675.056 157.221 673.499 155.447 671.441 154.196C669.4 152.927 667.104 152.293 664.553 152.293C660.928 152.293 657.806 153.51 655.184 155.944C652.58 158.361 651.278 162.405 651.278 168.078Z" fill="#EA0000"/>
<path d="M235 37V0H240.061V15.1937H259.939V0H265V37H259.939V19.56H240.061V37H235Z" fill="white"/>
<path d="M428 37V0H433.061V15.1937H452.939V0H458V37H452.939V19.56H433.061V37H428Z" fill="white"/>
<path d="M215 163V168L46 168V163L215 163Z" fill="white"/>
<path d="M833 163V168L695 168V163L833 163Z" fill="white"/>
<path d="M406 163V168L276 168V163L406 163Z" fill="white"/>
<path d="M628 163V168L480 168V163L628 163Z" fill="white"/>
<path d="M253 287H248V200H253V287Z" fill="white"/>
<path d="M446 287H441V200H446V287Z" fill="white"/>
<path d="M253 135H248V48H253V135Z" fill="white"/>
<path d="M446 135H441V48H446V135Z" fill="white"/>
</svg>
